<svg xmlns="http://www.w3.org/2000/svg" xmlns:xlink="http://www.w3.org/1999/xlink" width="120" height="120"
    viewBox="0 0 120 120" id="reminders">
    <defs>
        <rect id="a" width="120" height="120" x="0" y="0" rx="28"></rect>
    </defs>
    <g fill="none" fill-rule="evenodd">
        <g>
            <mask id="b" fill="#fff">
                <use xlink:href="#a"></use>
            </mask>
            <use fill="#FFF" xlink:href="#a"></use>
            <path fill="#C7C5C9" d="M40 104h83v2H40zM40 73h83v2H40zM40 42h83v2H40zM40 11h83v2H40z" mask="url(#b)">
            </path>
            <path fill="#07A9FC"
                d="M20 69c-5.523 0-10-4.477-10-10s4.477-10 10-10 10 4.477 10 10-4.477 10-10 10zm0-2a8 8 0 1 0 0-16 8 8 0 0 0 0 16zm0-2a6 6 0 1 1 0-12 6 6 0 0 1 0 12z"
                mask="url(#b)"></path>
            <path fill="#62DC30"
                d="M20 99c-5.523 0-10-4.477-10-10s4.477-10 10-10 10 4.477 10 10-4.477 10-10 10zm0-2a8 8 0 1 0 0-16 8 8 0 0 0 0 16zm0-2a6 6 0 1 1 0-12 6 6 0 0 1 0 12z"
                mask="url(#b)"></path>
            <path fill="#FF9521"
                d="M20 39c-5.523 0-10-4.477-10-10s4.477-10 10-10 10 4.477 10 10-4.477 10-10 10zm0-2a8 8 0 1 0 0-16 8 8 0 0 0 0 16zm0-2a6 6 0 1 1 0-12 6 6 0 0 1 0 12z"
                mask="url(#b)"></path>
        </g>
    </g>
</svg>