<svg xmlns="http://www.w3.org/2000/svg" xmlns:xlink="http://www.w3.org/1999/xlink" width="120" height="120" viewBox="0 0 120 120" id="wallet"><defs><path id="a" d="M24 27h72a9 9 0 0 1 9 9v45c0 7.18-5.82 13-13 13H28c-7.18 0-13-5.82-13-13V36a9 9 0 0 1 9-9z"></path><path id="d" d="M24 31h72a5 5 0 0 1 5 5v13H19V36a5 5 0 0 1 5-5z"></path><path id="f" d="M24 38h72a5 5 0 0 1 5 5v13H19V43a5 5 0 0 1 5-5z"></path><path id="h" d="M24 45h72a5 5 0 0 1 5 5v13H19V50a5 5 0 0 1 5-5z"></path><path id="j" d="M24 53h72a5 5 0 0 1 5 5v17H19V58a5 5 0 0 1 5-5z"></path><path id="k" d="M24 27h72a9 9 0 0 1 9 9v45c0 7.18-5.82 13-13 13H28c-7.18 0-13-5.82-13-13V36a9 9 0 0 1 9-9z"></path><path id="n" d="M60.25 71.998C50.031 71.824 51.916 61 41.5 61H14v35.5h92.5V61H79c-10.416 0-8.531 10.824-18.75 10.998z"></path><filter id="c" width="117.1%" height="177.8%" x="-8.5%" y="-50%" filterUnits="objectBoundingBox"><feOffset dy="-2" in="SourceAlpha" result="shadowOffsetOuter1"></feOffset><feGaussianBlur in="shadowOffsetOuter1" result="shadowBlurOuter1" stdDeviation="2"></feGaussianBlur><feColorMatrix in="shadowBlurOuter1" values="0 0 0 0 0 0 0 0 0 0 0 0 0 0 0 0 0 0 0.15 0"></feColorMatrix></filter><filter id="e" width="117.1%" height="177.8%" x="-8.5%" y="-50%" filterUnits="objectBoundingBox"><feOffset dy="-2" in="SourceAlpha" result="shadowOffsetOuter1"></feOffset><feGaussianBlur in="shadowOffsetOuter1" result="shadowBlurOuter1" stdDeviation="2"></feGaussianBlur><feColorMatrix in="shadowBlurOuter1" values="0 0 0 0 0 0 0 0 0 0 0 0 0 0 0 0 0 0 0.15 0"></feColorMatrix></filter><filter id="g" width="117.1%" height="177.8%" x="-8.5%" y="-50%" filterUnits="objectBoundingBox"><feOffset dy="-2" in="SourceAlpha" result="shadowOffsetOuter1"></feOffset><feGaussianBlur in="shadowOffsetOuter1" result="shadowBlurOuter1" stdDeviation="2"></feGaussianBlur><feColorMatrix in="shadowBlurOuter1" values="0 0 0 0 0 0 0 0 0 0 0 0 0 0 0 0 0 0 0.15 0"></feColorMatrix></filter><filter id="i" width="117.1%" height="163.6%" x="-8.5%" y="-40.9%" filterUnits="objectBoundingBox"><feOffset dy="-2" in="SourceAlpha" result="shadowOffsetOuter1"></feOffset><feGaussianBlur in="shadowOffsetOuter1" result="shadowBlurOuter1" stdDeviation="2"></feGaussianBlur><feColorMatrix in="shadowBlurOuter1" values="0 0 0 0 0 0 0 0 0 0 0 0 0 0 0 0 0 0 0.15 0"></feColorMatrix></filter><filter id="m" width="115.1%" height="139.4%" x="-7.6%" y="-25.4%" filterUnits="objectBoundingBox"><feOffset dy="-2" in="SourceAlpha" result="shadowOffsetOuter1"></feOffset><feGaussianBlur in="shadowOffsetOuter1" result="shadowBlurOuter1" stdDeviation="2"></feGaussianBlur><feColorMatrix in="shadowBlurOuter1" values="0 0 0 0 0 0 0 0 0 0 0 0 0 0 0 0 0 0 0.10229846 0"></feColorMatrix></filter></defs><g fill="none" fill-rule="evenodd"><g><rect width="120" height="120" fill="#1C181B" rx="28"></rect><mask id="b" fill="#fff"><use xlink:href="#a"></use></mask><use fill="#E5E3DD" xlink:href="#a"></use><g mask="url(#b)"><use fill="#000" filter="url(#c)" xlink:href="#d"></use><use fill="#50BCD5" xlink:href="#d"></use></g><g mask="url(#b)"><use fill="#000" filter="url(#e)" xlink:href="#f"></use><use fill="#FCC42C" xlink:href="#f"></use></g><g mask="url(#b)"><use fill="#000" filter="url(#g)" xlink:href="#h"></use><use fill="#68D95E" xlink:href="#h"></use></g><g mask="url(#b)"><use fill="#000" filter="url(#i)" xlink:href="#j"></use><use fill="#F47E7E" xlink:href="#j"></use></g><mask id="l" fill="#fff"><use xlink:href="#k"></use></mask><path stroke="#E5E3DD" stroke-width="4" d="M24 29a7 7 0 0 0-7 7v45c0 6.075 4.925 11 11 11h64c6.075 0 11-4.925 11-11V36a7 7 0 0 0-7-7H24z"></path><g mask="url(#l)"><use fill="#000" filter="url(#m)" xlink:href="#n"></use><use fill="#E5E3DD" xlink:href="#n"></use></g></g></g></svg>